<svg width="24" height="24" viewBox="0 0 24 24" fill="none" xmlns="http://www.w3.org/2000/svg">
<g clip-path="url(#clip0)">
<path d="M19.6919 9.46848C19.68 9.46848 19.6681 9.46848 19.6681 9.46848C19.8465 9.03342 19.9536 8.56211 19.9536 8.06663C19.9536 6.10887 18.395 4.52575 16.4676 4.52575C15.7894 4.52575 15.1469 4.73119 14.6115 5.06957C13.8858 3.26892 12.1487 2 10.1142 2C7.43724 2 5.25996 4.21154 5.25996 6.93064C5.25996 7.13609 5.27186 7.34153 5.29566 7.53489C5.28376 7.53489 5.27186 7.53489 5.25996 7.53489C3.46341 7.53489 2 9.02133 2 10.8462C2 12.671 3.46341 14.1574 5.25996 14.1574H19.6919C20.9649 14.1574 22 13.106 22 11.8129C22 10.5199 20.9649 9.46848 19.6919 9.46848Z" fill="#BFC7F0"/>
<path d="M8.40065 19.9339C8.00802 20.7678 7.03241 21.1062 6.21147 20.7195C5.39053 20.3207 5.0574 19.3297 5.43812 18.4958C5.70413 17.9309 6.95318 17.0553 7.73111 16.5493C8.03004 16.3549 8.4179 16.5398 8.45566 16.8944C8.55506 17.8279 8.66758 19.3752 8.40065 19.9339Z" fill="#93BFF9"/>
<path d="M12.4817 19.9339C12.0891 20.7678 11.1135 21.1062 10.2925 20.7195C9.47159 20.3207 9.13845 19.3297 9.51918 18.4958C9.78519 17.9309 11.0342 17.0553 11.8122 16.5493C12.1111 16.3549 12.499 16.5398 12.5367 16.8944C12.6361 17.8279 12.7486 19.3752 12.4817 19.9339Z" fill="#93BFF9"/>
<path d="M16.6106 20.055C16.218 20.8889 15.2424 21.2273 14.4214 20.8406C13.6005 20.4418 13.2674 19.4508 13.6481 18.6169C13.9141 18.052 15.1631 17.1764 15.9411 16.6704C16.24 16.476 16.6279 16.6609 16.6656 17.0155C16.765 17.949 16.8775 19.4963 16.6106 20.055Z" fill="#93BFF9"/>
</g>
<defs>
<clipPath id="clip0">
<rect width="24" height="24" fill="white"/>
</clipPath>
</defs>
</svg>
