<svg width="20" height="20" viewBox="0 0 20 20" fill="none" xmlns="http://www.w3.org/2000/svg">
<path d="M7.68623 0.114944C8.29182 0.0130482 8.89742 0.522524 8.89742 1.1339C8.89742 1.64337 8.59462 2.05095 8.08996 2.15285C7.18156 2.35664 6.3741 2.66232 5.56664 3.1718C5.16291 3.47748 4.65825 3.37559 4.35545 3.0699C3.85079 2.56043 3.95172 1.84716 4.55731 1.43958C5.46571 0.82821 6.57597 0.420629 7.68623 0.114944Z" fill="#212121"/>
<path d="M1.32747 4.70023C1.7312 4.08886 2.43773 3.98696 2.94239 4.49644C3.24519 4.80212 3.34612 5.3116 3.04333 5.82107C2.6396 6.53434 2.23587 7.4514 2.034 8.36845C1.93307 8.77603 1.52934 9.08172 1.02467 9.08172C0.318146 9.08172 -0.0855844 8.47035 0.015348 7.85898C0.318146 6.73813 0.721876 5.61728 1.32747 4.70023Z" fill="#212121"/>
<path d="M0.015348 12.3424C-0.0855844 11.731 0.419078 11.1196 1.02467 11.1196C1.52934 11.1196 1.93307 11.4253 2.034 11.9348C2.23587 12.8518 2.53866 13.667 3.04333 14.4822C3.34612 14.7879 3.24519 15.3992 2.94239 15.7049C2.43773 16.1125 1.63027 16.0106 1.32747 15.5011C0.721876 14.5841 0.318146 13.4632 0.015348 12.3424Z" fill="#212121"/>
<path d="M7.68623 19.9845C6.57597 19.6788 5.46571 19.2712 4.55731 18.6599C3.95172 18.3542 3.85079 17.539 4.45638 17.1314C4.75918 16.7239 5.26384 16.7239 5.66757 16.9277C6.3741 17.3352 7.2825 17.7428 8.19089 17.9466C8.59462 18.0485 8.89742 18.4561 8.89742 18.9656C8.89742 19.5769 8.29182 20.0864 7.68623 19.9845Z" fill="#212121"/>
<path d="M12.2282 19.9845C16.6692 18.9656 20 14.8897 20 10.1007C20 5.3116 16.6692 1.23579 12.2282 0.0130482C11.6226 -0.0888469 11.017 0.420629 11.017 1.032C11.017 1.54148 11.4207 1.94906 11.8245 2.05095C15.458 2.86611 18.0823 6.12676 18.0823 9.99878C18.0823 13.8708 15.458 17.1314 11.8245 17.9466C11.3198 18.0485 11.017 18.4561 11.017 18.9656C11.017 19.6788 11.6226 20.0864 12.2282 19.9845Z" fill="#212121"/>
<path d="M9.8 6C9.3 6 9 6.3 9 6.8V10.5C9 10.9 9.2 11.2 9.5 11.4L12.6 13.3C13 13.5 13.4 13.4 13.6 13C13.8 12.6 13.7 12.2 13.3 12L10.4 10.3V6.8C10.4 6.38767 10.2 6 9.8 6Z" fill="#212121"/>
</svg>
