<svg width="18" height="20" viewBox="0 0 18 20" fill="none" xmlns="http://www.w3.org/2000/svg">
<path d="M16 2H11.8C11.4 0.8 10.3 0 9 0C7.7 0 6.6 0.8 6.2 2H2C0.9 2 0 2.9 0 4V18C0 19.1 0.9 20 2 20H16C17.1 20 18 19.1 18 18V4C18 2.9 17.1 2 16 2ZM9 2C9.6 2 10 2.5 10 3C10 3.5 9.6 4 9 4C8.4 4 8 3.6 8 3C8 2.4 8.4 2 9 2ZM10 16H5C4.4 16 4 15.5 4 15C4 14.5 4.4 14 5 14H10C10.6 14 11 14.4 11 15C11 15.5 10.6 16 10 16ZM13 12H5C4.4 12 4 11.6 4 11C4 10.4 4.4 10 5 10H13C13.5 10 14 10.4 14 11C14 11.6 13.5 12 13 12ZM13 8H5C4.4 8 4 7.6 4 7C4 6.4 4.4 6 5 6H13C13.5 6 14 6.4 14 7C14 7.6 13.5 8 13 8Z" fill="#212121"/>
</svg>
